<?xml version="1.0" standalone="no"?>
<!DOCTYPE svg PUBLIC "-//W3C//DTD SVG 20010904//EN"
 "http://www.w3.org/TR/2001/REC-SVG-20010904/DTD/svg10.dtd">
<svg version="1.0" xmlns="http://www.w3.org/2000/svg"
 width="109.000000pt" height="18.000000pt" viewBox="0 0 109.000000 18.000000"
 preserveAspectRatio="xMidYMid meet">

<g transform="translate(0.000000,18.000000) scale(0.100000,-0.100000)"
fill="#000000" stroke="none">
<path d="M54 148 c-47 -51 -55 -87 -24 -118 26 -26 64 -26 90 0 29 29 25 65
-13 106 l-32 35 -21 -23z m12 -98 c8 0 14 -5 14 -10 0 -7 -6 -7 -20 0 -11 6
-20 16 -19 23 0 9 2 9 6 0 2 -7 11 -13 19 -13z"/>
<path d="M152 80 c0 -14 2 -19 5 -12 2 6 2 18 0 25 -3 6 -5 1 -5 -13z"/>
<path d="M312 80 c0 -14 2 -19 5 -12 2 6 2 18 0 25 -3 6 -5 1 -5 -13z"/>
<path d="M200 72 c0 -10 3 -13 8 -7 11 16 34 17 44 3 7 -10 9 -10 5 2 -5 22
-57 23 -57 2z"/>
<path d="M276 83 c5 -5 12 -12 16 -18 4 -6 8 -2 8 8 0 9 -7 17 -17 17 -9 0
-12 -3 -7 -7z"/>
<path d="M330 82 c0 -5 7 -9 15 -9 8 0 12 4 9 9 -3 4 -9 8 -15 8 -5 0 -9 -4
-9 -8z"/>
</g>
</svg>
