<?xml version="1.0" standalone="no"?>
<!DOCTYPE svg PUBLIC "-//W3C//DTD SVG 20010904//EN"
 "http://www.w3.org/TR/2001/REC-SVG-20010904/DTD/svg10.dtd">
<svg version="1.0" xmlns="http://www.w3.org/2000/svg"
 width="109.000000pt" height="49.000000pt" viewBox="0 0 109.000000 49.000000"
 preserveAspectRatio="xMidYMid meet">

<g transform="translate(0.000000,49.000000) scale(0.100000,-0.100000)"
fill="#000000" stroke="none">
<path d="M0 245 l0 -245 545 0 545 0 0 245 0 245 -545 0 -545 0 0 -245z m857
-57 c-2 -18 -4 -4 -4 32 0 36 2 50 4 33 2 -18 2 -48 0 -65z m-430 0 c-2 -18
-4 -6 -4 27 0 33 2 48 4 33 2 -15 2 -42 0 -60z m86 27 c0 -15 -8 -33 -17 -41
-9 -8 -11 -9 -6 -2 6 7 10 26 10 43 0 17 -4 36 -10 43 -5 7 -3 6 6 -2 9 -8 17
-26 17 -41z m84 19 c-3 -3 -12 -4 -19 -1 -8 3 -5 6 6 6 11 1 17 -2 13 -5z m94
-11 c12 -16 12 -17 -1 -7 -8 7 -24 14 -35 17 -19 4 -19 5 1 6 12 0 28 -7 35
-16z m119 3 c15 -19 9 -58 -10 -64 -12 -4 -13 -2 -2 9 16 18 15 34 -4 53 -8 9
-11 16 -6 16 5 0 15 -7 22 -14z m120 10 c0 -2 -7 -7 -16 -10 -8 -3 -12 -2 -9
4 6 10 25 14 25 6z m-184 -22 c-3 -8 -1 -24 4 -35 7 -12 7 -19 1 -19 -5 0 -12
-10 -14 -22 -2 -13 -5 -4 -6 19 -1 40 6 73 16 73 3 0 2 -7 -1 -16z m274 12 c0
-3 -4 -8 -10 -11 -5 -3 -10 -1 -10 4 0 6 5 11 10 11 6 0 10 -2 10 -4z m-463
-53 c-3 -10 -5 -2 -5 17 0 19 2 27 5 18 2 -10 2 -26 0 -35z m350 23 c-3 -7 0
-19 6 -25 8 -8 8 -11 0 -11 -11 0 -23 22 -23 41 0 5 5 9 11 9 6 0 9 -6 6 -14z
m-277 -21 c14 -19 14 -19 -2 -6 -10 7 -18 18 -18 24 0 6 1 8 3 6 1 -2 9 -13
17 -24z m62 -7 c-8 -8 -9 -4 -5 13 4 13 8 18 11 10 2 -7 -1 -18 -6 -23z m325
0 c-3 -8 -6 -5 -6 6 -1 11 2 17 5 13 3 -3 4 -12 1 -19z"/>
</g>
</svg>
